# xmcd
#
# Track frame offsets:
#	150
#	8630
#	29185
#	48885
#	69367
#	83572
#	105397
#	125237
#	132552
#	152702
#	174705
#	192092
#	211292
#	231457
#	251692
#	271897
#
# Disc length: 3893 seconds
#
# Revision: 2
# Processed by: cddbd v1.5.2PL0 Copyright (c) Steve Scherf et al.
# Submitted via: EasyCDDAExtractor 10.0.3.1
#
DISCID=e00f3310
DTITLE=Various Artist - MP Hiphop 2002 ù¦×µ
DYEAR=2002
DGENRE=Hip-Hop
TTITLE0=MP Hiphop 2002 ù¦×µ - Lifestyle Anthem(DJ TACTICS, SCHEDULE 1 and VASCO)
TTITLE1=MP Hiphop 2002 ù¦×µ - N.I.M.I.(VASCO and JUVIE TRAIN)
TTITLE2=MP Hiphop 2002 u|×μ - What da Fuck U Want(SQUARE and D.O)
TTITLE3=MP Hiphop 2002 u|×μ - Better Then U(JOOSUC and SPHERE OF INFLUENCE)
TTITLE4=MP Hiphop 2002 ù¦×µ - Close Encounter of Hip Hop 3rd Kind(DJ FREEK and D
TTITLE4=J HONDA)
TTITLE5=MP Hiphop 2002 ù¦×µ - ºo¸®Aø(DEFCONN and ³I¾÷≫þ'I)
TTITLE6=MP Hiphop 2002 ù¦×µ - 'Ï'Ò¸®(ONESUN, SOLCHAMBER and ±èÁøÇ¥)
TTITLE7=MP Hiphop 2002 ù¦×µ - It Nerber Ends (interlude)
TTITLE8=MP Hiphop 2002 ù¦×µ - Sex Drive pt.2(MR.SHY-D and VERBAL JINT)
TTITLE9=MP Hiphop 2002 ù¦×µ - On The Couch(QJ, AS ONE and JOOSUC)
TTITLE10=MP Hiphop 2002 ù¦×µ - °­³² ±è¼¼ ÀÌ¾ß±â(RHYMER and DJ TACTICS)
TTITLE11=MP Hiphop 2002 ù¦×µ - Listen to This(GOLIATH MONSTA , ½Ç·Â, DIGGA and D
TTITLE11=ETECT)
TTITLE12=MP Hiphop 2002 ù¦×µ - How B Do(SIDE-B and DJ soulscape)
TTITLE13=MP Hiphop 2002 ù¦×µ - The Untouchable(MASTER PLAN ALLSTARZ)
TTITLE14=MP Hiphop 2002 ù¦×µ - Sex Drive pt.2 (inst.)
TTITLE15=MP Hiphop 2002 ù¦×µ - The Untouchable (inst.)
EXTD=YEAR: 2002\n
EXTT0=
EXTT1=
EXTT2=
EXTT3=
EXTT4=
EXTT5=
EXTT6=
EXTT7=
EXTT8=
EXTT9=
EXTT10=
EXTT11=
EXTT12=
EXTT13=
EXTT14=
EXTT15=
PLAYORDER=
